<?xml version="1.0" encoding="iso-8859-1"?>
<!-- Generator: Adobe Illustrator 16.0.0, SVG Export Plug-In . SVG Version: 6.00 Build 0)  -->
<!DOCTYPE svg PUBLIC "-//W3C//DTD SVG 1.1//EN" "http://www.w3.org/Graphics/SVG/1.1/DTD/svg11.dtd">
<svg xmlns="http://www.w3.org/2000/svg" xmlns:xlink="http://www.w3.org/1999/xlink" x="0px" y="0px"
	 width="96px" height="96px" viewBox="0 0 275.725 275.725">
<g>
	<g>
		<path d="M137.862,0C61.726,0,0,61.726,0,137.862c0,76.14,61.726,137.862,137.862,137.862c76.139,0,137.862-61.723,137.862-137.862
			C275.725,61.726,214.001,0,137.862,0z M125.639,148.395L75.67,177.051c-8.606,4.93-15.583,0.891-15.583-9.041v-57.115
			c0-9.926,6.978-13.973,15.583-9.03l49.969,28.656C134.245,135.455,134.245,143.455,125.639,148.395z M161.371,166.694
			c0,9.922-5.442,17.968-12.169,17.968c-6.722,0-12.171-8.046-12.171-17.968V112.21c0-9.921,5.449-17.971,12.171-17.971
			c6.727,0,12.169,8.05,12.169,17.971V166.694z M211.878,166.694c0,9.922-5.447,17.968-12.174,17.968
			c-6.726,0-12.174-8.046-12.174-17.968V112.21c0-9.921,5.448-17.971,12.174-17.971c6.727,0,12.174,8.05,12.174,17.971V166.694z"/>
	</g>
</g>
</svg>
